<svg xmlns="http://www.w3.org/2000/svg"  viewBox="0 0 460.265 59">
  <g id="Group_31" data-name="Group 31" transform="translate(9112.225 -2103.287)">
    <g id="Group_3117" data-name="Group 3117" transform="translate(-9112.225 2103.287)">
      <ellipse id="Ellipse_350" data-name="Ellipse 350" cx="27" cy="27.571" rx="27" ry="27.571" transform="translate(2.998 2.169)" fill="#fff"/>
      <path id="Path_2466" data-name="Path 2466" d="M498.743,116.24l-4.435,2.425v.08a8.983,8.983,0,0,0,4.032.808,9.676,9.676,0,0,0,3.064-.4V100.969l-1.21-.08-1.528,1.457v13.9Zm-34.51-9.052v-.4c0-3.315.08-3.637,3.628-8.405l-.08-.08-2.9,1.616h-2.173c-1.128,0-1.527.08-1.935.566a1.549,1.549,0,0,0-.323,1.213h-.4a3.375,3.375,0,0,1-.564-1.858,3.47,3.47,0,0,1,.967-2.584,3.988,3.988,0,0,1,3.145-.969l3.145.242,2.177-.242.323.162v17.619c0,2.105-.081,2.747-4.6,7.112l.081.162,4.032-1.213h2.5V96.118h1.21V107.19h4.516v-8l5.728-3.152.323.162-.644,4.769v17.619l2.741,2.02v.323l-4.193,2.747h-.326l-3.548-3.394v-9.618h-4.521v10.83l-3.386,2.263h-7.9l-.161-.323c3.063-3.8,3.307-4.929,3.307-7.112v-5.576h-5.081l-.081-.324,2.258-3.152h2.74Zm25.8,3.8a8.974,8.974,0,0,0,2.419,6.465,3.514,3.514,0,0,0,.887.727h.081l.967-1.213v-13.9l4.193-2.263v-.08a35.358,35.358,0,0,0-4.678-.485c-3.063,0-4.273.566-5.16,1.457a3.652,3.652,0,0,0-.967,2.182h-.645a7.193,7.193,0,0,1-.484-2.425,4.924,4.924,0,0,1,1.453-3.637c1.209-1.212,3.145-1.94,6.205-1.94,2.258,0,5.966.727,9.11.727,2.177,0,2.822-.323,3.789-1.7l.4.08c-.726,4.689-2.5,5.98-4.917,5.98h-.242v17.7a8.188,8.188,0,0,0,4.435-3.88l.4.08a8.469,8.469,0,0,1-2.5,5.742,11.318,11.318,0,0,1-8.143,3.071,10.369,10.369,0,0,1-10.965-10.668,9.539,9.539,0,0,1,2.741-6.789,11.284,11.284,0,0,1,4.112-2.667l.241.323a10.924,10.924,0,0,0-2.742,7.112m24.026-.889a29.183,29.183,0,0,0-8.385-20.852,30.912,30.912,0,0,0-42.891,0,30.119,30.119,0,0,0,0,41.7,30.917,30.917,0,0,0,42.892,0,29.52,29.52,0,0,0,8.385-20.852" transform="translate(-454.393 -80.605)" fill="#00b1cd"/>
    </g>
    <path id="Path_2293" data-name="Path 2293" d="M129.35,336.606l-.88.67a7.672,7.672,0,0,0-4.6-1.341,12.062,12.062,0,0,0-5.326,1.245v-.05a11.172,11.172,0,0,1,6.258-1.809,7.255,7.255,0,0,1,4.552,1.294m356.693-.776a1.915,1.915,0,0,1,.414-.931,5.379,5.379,0,0,1,1.808-.259,9.91,9.91,0,0,1,7.034,2.484l-.827.517c-1.759-1.708-4.6-2.173-6.518-2.173a5.043,5.043,0,0,0-1.915.362m-224.64,0a1.916,1.916,0,0,1,.414-.931,5.381,5.381,0,0,1,1.809-.258,9.412,9.412,0,0,1,6.621,2.484l-.827.517a9.414,9.414,0,0,0-6.1-2.173,5.254,5.254,0,0,0-1.915.362m-86.381-3.414a25.6,25.6,0,0,0,5.069,4.294l-1.035.67a25.158,25.158,0,0,1-4.966-4.294Zm246.619,0a25.608,25.608,0,0,0,5.069,4.294l-1.035.67a25.159,25.159,0,0,1-4.966-4.294Zm-89.743,0a25.6,25.6,0,0,0,5.069,4.294l-1.035.67a25.149,25.149,0,0,1-4.966-4.294Zm74.328-.31a21.664,21.664,0,0,0,5.535,4.605l-1.032.67a23.691,23.691,0,0,1-5.431-4.6Zm-246.675,0a22.593,22.593,0,0,0,5.535,4.605l-1.035.67a23.689,23.689,0,0,1-5.431-4.6Zm127.864-.67a36.6,36.6,0,0,0,7.242,5.484l-1.035.724a35.558,35.558,0,0,1-7.138-5.536Zm21.1,5.949a16.99,16.99,0,0,1-4.862-4.345v-5.075a38.57,38.57,0,0,0-.207-4.552l1.087-.414c.05,1.245.155,2.845.155,4.45v5.22a15.677,15.677,0,0,0,4.863,3.984ZM500,333.207v-8.95l-3.052-1.341.62-.67,3.467,1.5v10.276l-.155.05Zm-225.054,0v-8.95l-3.052-1.341.62-.67,3.467,1.5v10.276l-.155.05Zm36.259-8.485a17.571,17.571,0,0,1,.362-4.45,25.925,25.925,0,0,0,4.6.827v10.853c-.827.362-1.708.67-2.431,1.035a11.708,11.708,0,0,1-2.483-1.915V324.71Zm-176.015-9.576h7.448v.879h-7.448Zm-19.759,1.139.931-1.139H122.1v.879h-2.483a24.647,24.647,0,0,0-4.189.259m95.38,20.436-1.035.67a18.525,18.525,0,0,1-5.275-4.811v-14.8c0-3.518-.05-5.019-.155-6.26l1.138-.465v21.162a16.926,16.926,0,0,0,5.326,4.5m93.415-21.781c1.809-1.245,3.517-2.585,5.225-3.983a18.313,18.313,0,0,0,6.724,2.845v6.156c-5.326-.465-9.155-2.173-11.948-5.019m167.23-3.989.155-.05a51.35,51.35,0,0,0,5.018,8.382l-5.17,2.793Zm23.12,13.71-.67.724-6.827-3.208v-7.708a32.225,32.225,0,0,0-.207-3.568l1.245-.362v11.123Zm-225.054,0-.67.724-6.827-3.208v-7.708a32.213,32.213,0,0,0-.207-3.568l1.245-.362v11.123Zm129.156,7.661a18.114,18.114,0,0,1-13.4,5.639c-5.9,0-10.551-1.915-14.018-5.276a16.578,16.578,0,0,1-4.862-12,14.053,14.053,0,0,1,4.552-10.3l.05.05a14.382,14.382,0,0,0-3.567,9.778A16.419,16.419,0,0,0,372.3,332c3.207,3.208,7.659,4.967,13.345,4.967a18.812,18.812,0,0,0,13.034-4.656ZM287.316,310.74h-1.809l.518-.931h1.293Zm14.225-.879-.827,1.087a28.8,28.8,0,0,0-4.861-.207v-.931h5.586Zm170.588,27.68a65.727,65.727,0,0,1-8.329-8.588v-13.09c0-2.586-.155-4.863-.259-5.746l1.087-.258a42.536,42.536,0,0,1,.207,5.07v13.606a66.554,66.554,0,0,0,8.276,8.382Zm-150.157-.827-1.035.67a20.6,20.6,0,0,1-4.138-4.656v-19.4a18.93,18.93,0,0,1-6.933-2.9l.724-.724a20.357,20.357,0,0,0,7.19,3v19.608a25.384,25.384,0,0,0,4.189,4.4m-127.087,0-1.035.67a24.283,24.283,0,0,1-4.345-3.932V312.188a9.114,9.114,0,0,0-2.483-2.431l.931-.414a10.1,10.1,0,0,1,2.585,2.586v21.162a23.275,23.275,0,0,0,4.345,3.622m156.829,0-1.035.67a24.28,24.28,0,0,1-4.345-3.932V312.188a9.119,9.119,0,0,0-2.482-2.431l.931-.414a10.1,10.1,0,0,1,2.585,2.586v21.162a25.088,25.088,0,0,0,4.345,3.622m89.795,0-1.035.67a24.278,24.278,0,0,1-4.345-3.932V312.188a9.116,9.116,0,0,0-2.483-2.431l.931-.414a10.1,10.1,0,0,1,2.585,2.586v21.162a25.073,25.073,0,0,0,4.345,3.622m13.967,0-1.035.67a24.276,24.276,0,0,1-4.345-3.932V312.188A8.94,8.94,0,0,0,447.5,309.7l.931-.414a11.476,11.476,0,0,1,2.638,2.638v21.162a27.831,27.831,0,0,0,4.4,3.622m-123.045-5.277v-19.4a10.632,10.632,0,0,0-2.172-2.38l.879-.465a13.023,13.023,0,0,1,2.327,2.431V330.66l-.93.724h-.1Zm74.328-.362V312.035a12.15,12.15,0,0,0-2.172-2.379l.879-.465a13.082,13.082,0,0,1,2.327,2.431v18.728l-.931.724Zm-171.83,1.138a14.962,14.962,0,0,0,5.275,4.45l-1.035.67a16.107,16.107,0,0,1-5.275-4.811V311.258a9.743,9.743,0,0,0-2.327-1.6l.879-.465A12.936,12.936,0,0,1,234.867,311v21.211Zm187.3-.776v-19.4a10.633,10.633,0,0,0-2.172-2.379l.879-.465a13.013,13.013,0,0,1,2.327,2.43v19.038l-.931.724h-.1Zm-262.089-.362V312.035a12.144,12.144,0,0,0-2.172-2.379l.879-.465a13.082,13.082,0,0,1,2.327,2.432V330.35l-.931.724h-.1Zm15.414.362v-19.4a10.633,10.633,0,0,0-2.172-2.379l.879-.465a13.018,13.018,0,0,1,2.327,2.431V330.66l-.931.724h-.1Zm72.312-20.953a8.49,8.49,0,0,0-1.5-1.035l.879-.466a7.785,7.785,0,0,1,1.6,1.245v22.091a17.414,17.414,0,0,0,4.138,4.4l-1.035.67a15.5,15.5,0,0,1-4.138-4.811V310.484Zm-35.483,5.327c0-4.4.155-6.1.67-7.661,1.293.724,2.793,1.6,4.6,2.69v20.953c-.93.362-1.915.724-2.793,1.139a11.479,11.479,0,0,1-2.482-2.018Zm292.352-3.932-.724.931a3.857,3.857,0,0,1-1.34.207,10.928,10.928,0,0,1-8.38-3.932v-1.035h.155a11.188,11.188,0,0,0,8.535,4.087,5.339,5.339,0,0,0,1.759-.362Zm-225,0-.724.931a3.859,3.859,0,0,1-1.34.207,10.927,10.927,0,0,1-8.38-3.932v-1.035h.155a11.188,11.188,0,0,0,8.535,4.087,5.343,5.343,0,0,0,1.759-.362Zm197.43,7.14a63.016,63.016,0,0,1-5.69-9.671v-1.6l.155-.05a59.458,59.458,0,0,0,6.414,10.916ZM433.337,333.4l-.414-.67c-.518.207-1.035.414-1.5.621a6.334,6.334,0,0,1-1.34-.931V311.411c.879-.465,1.915-.931,2.9-1.341a8.992,8.992,0,0,1,2.483,2.38v21.422a23.056,23.056,0,0,0,4.966,4.45h.155a73.463,73.463,0,0,1,7.4-4.967l-.414-.67-1.449.621A8.546,8.546,0,0,1,444,331.6V311.42c.879-.465,1.915-.931,2.9-1.341a9,9,0,0,1,2.483,2.38v21.419a23.059,23.059,0,0,0,4.966,4.449h.155c2.689-2.018,4.81-3.518,7.914-5.432l-.414-.67a21.774,21.774,0,0,1-2.017.879,6.056,6.056,0,0,1-2.017-1.5V310.379a13.463,13.463,0,0,0-5.326-5.432h-.155a32.364,32.364,0,0,0-8.594,5.23,12.7,12.7,0,0,0-5.225-5.226h-.155a30.838,30.838,0,0,0-8.483,5.176,19.417,19.417,0,0,0-4.758-5.176h-.155a44.542,44.542,0,0,0-8.535,5.841l.518.621c.67-.465,1.5-.931,2.224-1.341a17.322,17.322,0,0,1,2.121,2.224v19.5c-.62.465-1.138.879-1.708,1.294v.155a29.447,29.447,0,0,0,5.84,5.071h.155a68.145,68.145,0,0,1,7.6-4.915m-260.9-.57-.414-.67c-.879.362-1.6.67-2.327,1.035a9.147,9.147,0,0,1-1.759-1.245V310.123a18.154,18.154,0,0,0-4.758-5.226h-.155a44.525,44.525,0,0,0-8.535,5.841l.517.621a25.479,25.479,0,0,1,2.224-1.341,17.321,17.321,0,0,1,2.121,2.225v19.09a19.414,19.414,0,0,1-1.708,1.341v.155a25.735,25.735,0,0,0,6.31,5.432h.155c2.844-2.018,5.018-3.467,8.329-5.432m171.78.207-.414-.67c-.827.362-1.5.621-2.224.93a6.722,6.722,0,0,1-1.293-.932v-21c.879-.466,1.915-.931,2.9-1.34a8.991,8.991,0,0,1,2.483,2.38v21.419a23.06,23.06,0,0,0,4.966,4.449h.155a77.987,77.987,0,0,1,7.914-5.432l-.414-.67a21.737,21.737,0,0,1-2.017.879,6.061,6.061,0,0,1-2.017-1.5V310.325a13.463,13.463,0,0,0-5.326-5.432h-.157a30.838,30.838,0,0,0-8.483,5.176,19.419,19.419,0,0,0-4.758-5.176h-.158a44.528,44.528,0,0,0-8.534,5.846l.517.621a25.478,25.478,0,0,1,2.224-1.34,17.316,17.316,0,0,1,2.121,2.224v19.5a18.21,18.21,0,0,1-1.708,1.294v.155a29.447,29.447,0,0,0,5.845,5.07h.155a74.677,74.677,0,0,1,8.224-5.226M241.748,309.4a20.844,20.844,0,0,0-4.966-4.45h-.155c-3,1.809-4.862,3.256-7.914,5.432l.414.67c.62-.362,1.245-.67,1.808-1.035a10.67,10.67,0,0,1,2.224,1.6V332.88a18.286,18.286,0,0,0,5.9,5.327h.155c2.483-1.809,5.225-3.673,7.862-5.276a21.942,21.942,0,0,0,4.81,5.276h.155c2.689-1.966,5.69-4.139,8.224-5.745l-.414-.67c-.827.362-1.552.724-2.327,1.087a10.825,10.825,0,0,1-1.808-1.6V311.413c.62-.466,1.087-.879,1.708-1.294v-.155a44.282,44.282,0,0,0-5.84-5.07h-.155c-3.1,1.809-5.225,3.208-8.224,5.276l.414.67,2.017-1.087a8.688,8.688,0,0,1,1.5,1.035v20.953c-1.035.414-1.965.827-2.9,1.245a11.478,11.478,0,0,1-2.483-2.018Zm177.363,23.436-.413-.67c-.879.362-1.6.67-2.327,1.035a9.161,9.161,0,0,1-1.759-1.245V310.119a18.15,18.15,0,0,0-4.758-5.226H409.7a44.528,44.528,0,0,0-8.535,5.841l.517.621a25.419,25.419,0,0,1,2.224-1.341,17.341,17.341,0,0,1,2.121,2.225v19.09a19.419,19.419,0,0,1-1.708,1.341v.155a25.732,25.732,0,0,0,6.31,5.432h.155a93.04,93.04,0,0,1,8.329-5.432m-231.779.207-.414-.67c-.827.362-1.5.622-2.224.931a6.733,6.733,0,0,1-1.293-.931v-21c.879-.466,1.915-.931,2.9-1.34a8.994,8.994,0,0,1,2.483,2.38v21.419a23.064,23.064,0,0,0,4.966,4.449h.155a77.952,77.952,0,0,1,7.914-5.432l-.414-.67a21.743,21.743,0,0,1-2.017.879,6.06,6.06,0,0,1-2.017-1.5V310.325a13.466,13.466,0,0,0-5.326-5.432h-.155a30.841,30.841,0,0,0-8.483,5.176,19.423,19.423,0,0,0-4.758-5.176h-.155a44.542,44.542,0,0,0-8.535,5.846l.518.621a25.445,25.445,0,0,1,2.224-1.34,17.319,17.319,0,0,1,2.121,2.224v19.5a18.214,18.214,0,0,1-1.708,1.294v.155a29.448,29.448,0,0,0,5.845,5.07h.155a79.854,79.854,0,0,1,8.224-5.226m284.123-7.661v-1.6l12.931-6.935v-.207a113.948,113.948,0,0,1-7.5-11.8h-.155a96.655,96.655,0,0,1-14.018,4.759,45.045,45.045,0,0,1,.414,6.829v12.832a62.5,62.5,0,0,0,8.743,9h.258a141.439,141.439,0,0,1,12.209-7.243l-.62-.931c-1.965.931-3.567,1.759-5.175,2.483a51.728,51.728,0,0,1-7.085-7.191M320.887,338.264h.155c2.689-1.966,5.69-4.139,8.224-5.745l-.414-.67c-.827.362-1.552.724-2.327,1.087a10.822,10.822,0,0,1-1.808-1.6v-16.14a22,22,0,0,1,.414-5.746c-3.467-.827-8.949-3-11.173-4.6H313.8a50.325,50.325,0,0,1-11.328,9.837v.207a15.908,15.908,0,0,0,8.017,5.07,67.764,67.764,0,0,1-7.862,3.208,35.113,35.113,0,0,1,.362,5.171V333.5a16.733,16.733,0,0,0,5.483,4.863h.155c2.431-1.759,5.069-3.518,7.659-5.176a21.387,21.387,0,0,0,4.6,5.07m173.638.155a43.219,43.219,0,0,1,13.035-6.053,15.633,15.633,0,0,1-.362-3.725V320.26l-8.017-3.518h-.211l-2.327,2.586-2.432-1.087v-8.123a11.246,11.246,0,0,0,8.224,3.518,9.552,9.552,0,0,0,1.759-.207,13.66,13.66,0,0,0,3.724-8.485,3.458,3.458,0,0,0-1.035,0,7.37,7.37,0,0,1-.207,1.759,5.145,5.145,0,0,1-1.965.414,8.047,8.047,0,0,1-5.534-2.38h-.155a41.773,41.773,0,0,1-13.035,5.691,22.841,22.841,0,0,1,.362,4.553v7.661l7.5,3.415h.207l2.379-2.638,2.844,1.245v8.07a14.081,14.081,0,0,0-9.207-3.208,9.55,9.55,0,0,0-1.759.207,13.79,13.79,0,0,0-3.724,8.537,3.466,3.466,0,0,0,1.035,0,7.364,7.364,0,0,1,.207-1.759,5.144,5.144,0,0,1,1.966-.414,9.334,9.334,0,0,1,6.57,2.38h.155Zm-225.054,0a43.222,43.222,0,0,1,13.035-6.053,15.614,15.614,0,0,1-.362-3.725V320.26l-8.017-3.518h-.207l-2.327,2.586-2.431-1.087v-8.123a11.246,11.246,0,0,0,8.224,3.518,9.55,9.55,0,0,0,1.759-.207,13.66,13.66,0,0,0,3.724-8.485,3.457,3.457,0,0,0-1.035,0,7.383,7.383,0,0,1-.207,1.759,5.146,5.146,0,0,1-1.965.414,8.047,8.047,0,0,1-5.535-2.38h-.105a41.773,41.773,0,0,1-13.035,5.691,22.839,22.839,0,0,1,.362,4.553v7.661l7.5,3.415h.207l2.379-2.638,2.844,1.245v8.07a13.473,13.473,0,0,0-8.793-3.208,9.551,9.551,0,0,0-1.759.207,13.79,13.79,0,0,0-3.726,8.536,3.47,3.47,0,0,0,1.035,0,7.369,7.369,0,0,1,.207-1.759,5.148,5.148,0,0,1,1.966-.414,9.024,9.024,0,0,1,6.155,2.38h.1Zm111.829-8.694-.05-.05c.414-1.087.465-1.809.465-4.552v-15a27.344,27.344,0,0,0-.465-5.07l1.087-.465a30.477,30.477,0,0,1,.414,5.07v14.694c-.05,3.518-.31,4.242-1.449,5.381M223.5,336.715l-1.035.67a19.873,19.873,0,0,1-4.138-4.811V310.483c-10.656-6.053-11.846-6.725-12.88-7.192l-.258-1.5h.05l14.068,8.278v22.037a20.741,20.741,0,0,0,4.189,4.6m165.674-30.988c0-2.431.05-3.256,1.087-4.294.466.05,1.448.207,2.017.258v29.231a16.664,16.664,0,0,1-4.551.621,18.478,18.478,0,0,1-6.414-1.087c2.9-1.138,5.9-2.432,8.224-3.568a37.056,37.056,0,0,1-.362-5.07Zm-101.173,2.742c0-2.845-.155-5.171-.258-6.416l1.245-.879h.05V329.78l-.93.724H288ZM126.922,299.98c-2.793,3.932-3.255,4.811-3.255,9.623V322.64c0,5.949-.259,8.331-4.345,13.089l-.05-.05c3.311-4.345,3.414-6.726,3.414-12.727V309.861c0-4.811.518-5.691,4.189-9.881Zm22.138,36.733-1.035.67a20.946,20.946,0,0,1-4.758-4.294V305.511a28.485,28.485,0,0,0-.465-5.9l1.245-.879a50.07,50.07,0,0,1,.258,6.311V332.68a19.575,19.575,0,0,0,4.758,4.035m-21.679-39.322.05.05a6.71,6.71,0,0,1-3.879,1.5c-1.5,0-2.793-.724-4.138-.724a4.533,4.533,0,0,0-3.255,1.245,3.789,3.789,0,0,0-.827,1.087h-.05a3.891,3.891,0,0,1,1.035-1.915,4.787,4.787,0,0,1,3.412-1.245c1.449,0,2.9.724,4.449.724a7.55,7.55,0,0,0,3.207-.724m31.547-.62a45.715,45.715,0,0,0,4.086,4.552l-.827.517a35.3,35.3,0,0,1-3.983-4.552Zm247.4-.05a54.36,54.36,0,0,0,4.138,4.6l-.827.517a40.827,40.827,0,0,1-4.086-4.6ZM367.9,305.31a7.732,7.732,0,0,1,1.965-3.88c1.915-1.915,4.758-2.845,8.535-2.845,5.9,0,12.931,1.809,17.534,1.809,2.379,0,4.344-1.035,5.948-3.88l.155.05c-1.708,3.467-3.724,4.656-6.363,4.656-4.6,0-11.534-1.809-17.534-1.809-3.724,0-6.363.931-8.224,2.793a8.131,8.131,0,0,0-1.966,3.053h-.05Zm-71.482-9.521-.258-.155c-3.879,2.432-6.933,4.553-9.155,6.26a30.917,30.917,0,0,1,.258,3.984,41.43,41.43,0,0,1-2.793,5.276l.155.207h2.639v19.452c-.62.465-1.087.827-1.708,1.245v.155a36.25,36.25,0,0,0,7.914,6.311h.155A60.253,60.253,0,0,1,301.9,333.3l-.414-.67a19.265,19.265,0,0,0-1.809.827,30.365,30.365,0,0,1-3.879-2.432V311.413h.362a44.274,44.274,0,0,1,4.81.207c2.482-3.256,3.567-5.07,3.983-6.26l-.155-.155a43.53,43.53,0,0,1-6.1.362h-2.9a79.718,79.718,0,0,1,.62-9.779M222.4,338.264h.155c2.689-1.966,5.69-3.983,8.224-5.639l-.414-.67c-.827.362-1.552.725-2.327,1.087a11.26,11.26,0,0,1-1.809-1.708V314.671c0-3.568.155-5.327.259-6.725-15.673-9.672-20.069-12.676-22.448-15.365l-.259.05a50.33,50.33,0,0,0,1.138,11.123,57.2,57.2,0,0,1,6.827,3.673c-2.585,1.294-5.483,2.585-8.224,3.725a57.285,57.285,0,0,1,.258,6.829v14.9a18.289,18.289,0,0,0,5.9,5.327h.155c2.431-1.759,5.175-3.568,7.81-5.227a20.593,20.593,0,0,0,4.758,5.276m-60.314-35.535h.155c2.483-1.708,4.138-2.9,6.31-4.656v-.155a66.046,66.046,0,0,0-4.758-5.432h-.155c-2.017,1.449-4.138,2.9-6.363,4.76v.155a37.525,37.525,0,0,0,4.81,5.327m247.295,0h.155c2.483-1.708,4.138-2.9,6.31-4.656v-.155a66.026,66.026,0,0,0-4.758-5.432h-.155c-2.017,1.449-4.138,2.9-6.363,4.76v.155a40.937,40.937,0,0,0,4.81,5.327m-274.29,31.2.05-.155V316.639h7.5v16.814a25.46,25.46,0,0,0,5.326,4.811h.155a92.623,92.623,0,0,1,8.949-5.9l-.414-.724c-.879.362-1.6.724-2.379,1.087a6.975,6.975,0,0,1-2.585-2.121V302.359a35.673,35.673,0,0,1,1.087-9.778l-.258-.155a70.693,70.693,0,0,0-10.5,7.14,22.017,22.017,0,0,1,.62,6.053v5.228H135.2V301.9c0-5.171.362-6.571,1.245-9.261l-.207-.05c-1.809,2.484-2.431,4.6-2.431,9.83v30.369a8.339,8.339,0,0,0-4.086-.931,15.592,15.592,0,0,0-5.638,1.087l-.05-.05c6.62-5.9,6.827-6.935,6.827-11.227V303.343c0-5.432.67-7.812,2.121-10.453l-.207-.207a8.3,8.3,0,0,1-4.189,1.245c-2.017,0-4.758-1.035-7.19-1.035a6.687,6.687,0,0,0-4.758,1.809,6.276,6.276,0,0,0-1.808,4.4,8.811,8.811,0,0,0,.414,2.638h.155a3.8,3.8,0,0,1,1.035-1.708,3.857,3.857,0,0,1,2.844-1.087c1.6,0,2.689.67,4.189.67s2.689-.517,5.018-2.121l.05.05c-6.1,6.364-6.31,7.5-6.31,12.417v.879a26.035,26.035,0,0,1-2.793-.259,62.591,62.591,0,0,0-5.018,6.311l.155.155a30.109,30.109,0,0,1,4.966-.362h2.689v8.382c0,5.171-.724,7.295-5.069,12.882l.207.259a16.956,16.956,0,0,1,6.775-1.5,5.911,5.911,0,0,1,4.293,1.552h.155a30.444,30.444,0,0,1,6.518-4.345m237.981-16.554a16.149,16.149,0,0,1,4.966-11.587l-.207-.259a19.592,19.592,0,0,0-7.862,4.862,14.9,14.9,0,0,0-4.293,10.5,16.406,16.406,0,0,0,4.966,12.106c3.517,3.518,8.38,5.536,14.431,5.536a18.065,18.065,0,0,0,13.293-5.176,15.535,15.535,0,0,0,4.4-10.553l-.362-.05a16.436,16.436,0,0,1-8.743,7.661V301.8c1.035.05,1.6.05,1.915.05,3.931,0,6.933-2.483,8.483-10.088l-.362-.155c-1.5,2.018-3.467,2.69-6.258,2.69-4.552,0-12-1.809-17.534-1.809-4.345,0-8.017,1.341-10.451,3.777a8.584,8.584,0,0,0-2.639,6.416,10.928,10.928,0,0,0,.879,4.19h.207a8.533,8.533,0,0,1,2.224-4.139c1.759-1.759,4.293-2.793,7.862-2.793a78.01,78.01,0,0,1,11.121,1.138c-2.793,1.035-6.363,2.484-8.692,3.568a27.861,27.861,0,0,1,.517,5.745v15.676c0,2.121-.05,3-.67,3.777a11.3,11.3,0,0,1-3-2.018,14.205,14.205,0,0,1-4.2-10.466" transform="translate(-9159.884 1818.061)" fill="#fff"/>
  </g>
</svg>
